<svg width="512" height="512" viewBox="0 0 512 512" fill="none" xmlns="http://www.w3.org/2000/svg">
  <rect width="512" height="512" rx="115" fill="url(#gradient)"/>
  <defs>
    <linearGradient id="gradient" x1="0" y1="0" x2="512" y2="512" gradientUnits="userSpaceOnUse">
      <stop offset="0%" stop-color="#4F46E5"/>
      <stop offset="100%" stop-color="#7C3AED"/>
    </linearGradient>
    <filter id="glow">
      <feGaussianBlur stdDeviation="4" result="coloredBlur"/>
      <feMerge>
        <feMergeNode in="coloredBlur"/>
        <feMergeNode in="SourceGraphic"/>
      </feMerge>
    </filter>
  </defs>
  <circle cx="256" cy="256" r="32" fill="#FFFFFF" filter="url(#glow)"/>
  <circle cx="256" cy="256" r="24" fill="#4F46E5" opacity="0.3"/>
  <circle cx="256" cy="128" r="24" fill="#FFFFFF" filter="url(#glow)"/>
  <circle cx="256" cy="128" r="16" fill="#60A5FA" opacity="0.4"/>
  <circle cx="362" cy="180" r="24" fill="#FFFFFF" filter="url(#glow)"/>
  <circle cx="362" cy="180" r="16" fill="#34D399" opacity="0.4"/>
  <circle cx="384" cy="300" r="24" fill="#FFFFFF" filter="url(#glow)"/>
  <circle cx="384" cy="300" r="16" fill="#60A5FA" opacity="0.4"/>
  <circle cx="320" cy="384" r="24" fill="#FFFFFF" filter="url(#glow)"/>
  <circle cx="320" cy="384" r="16" fill="#34D399" opacity="0.4"/>
  <circle cx="192" cy="384" r="24" fill="#FFFFFF" filter="url(#glow)"/>
  <circle cx="192" cy="384" r="16" fill="#60A5FA" opacity="0.4"/>
  <circle cx="128" cy="300" r="24" fill="#FFFFFF" filter="url(#glow)"/>
  <circle cx="128" cy="300" r="16" fill="#34D399" opacity="0.4"/>
  <circle cx="150" cy="180" r="24" fill="#FFFFFF" filter="url(#glow)"/>
  <circle cx="150" cy="180" r="16" fill="#60A5FA" opacity="0.4"/>
  <g opacity="0.6" stroke="#FFFFFF" stroke-width="3" stroke-linecap="round">
    <line x1="256" y1="256" x2="256" y2="128"/>
    <line x1="256" y1="256" x2="362" y2="180"/>
    <line x1="256" y1="256" x2="384" y2="300"/>
    <line x1="256" y1="256" x2="320" y2="384"/>
    <line x1="256" y1="256" x2="192" y2="384"/>
    <line x1="256" y1="256" x2="128" y2="300"/>
    <line x1="256" y1="256" x2="150" y2="180"/>
    <line x1="256" y1="128" x2="362" y2="180" opacity="0.5"/>
    <line x1="362" y1="180" x2="384" y2="300" opacity="0.5"/>
    <line x1="320" y1="384" x2="192" y2="384" opacity="0.5"/>
    <line x1="128" y1="300" x2="150" y2="180" opacity="0.5"/>
    <line x1="150" y1="180" x2="256" y2="128" opacity="0.5"/>
  </g>
  <circle cx="256" cy="192" r="4" fill="#34D399" opacity="0.8"/>
  <circle cx="310" cy="218" r="4" fill="#60A5FA" opacity="0.8"/>
  <circle cx="340" cy="278" r="4" fill="#34D399" opacity="0.8"/>
  <circle cx="288" cy="320" r="4" fill="#60A5FA" opacity="0.8"/>
  <circle cx="224" cy="320" r="4" fill="#34D399" opacity="0.8"/>
  <circle cx="192" cy="278" r="4" fill="#60A5FA" opacity="0.8"/>
  <circle cx="203" cy="218" r="4" fill="#34D399" opacity="0.8"/>
</svg>
